/vscmnt/brussel_pixiu_data/_data_brussel/112/vsc11236/PredSimResults/SUBJ04opt3D/weighted/trackIG/worker_03.mot
version=1
nRows=10
nColumns=50
inDegrees=yes
endheader
                time	         pelvis_tilt	         pelvis_list	     pelvis_rotation	           pelvis_tx	           pelvis_ty	           pelvis_tz	       hip_flexion_r	     hip_adduction_r	      hip_rotation_r	        knee_angle_r	       ankle_angle_r	         mtp_angle_r	       hip_flexion_l	     hip_adduction_l	      hip_rotation_l	        knee_angle_l	       ankle_angle_l	         mtp_angle_l	    lumbar_extension	      lumbar_bending	     lumbar_rotation	 ercspn_r/activation	 intobl_r/activation	 extobl_r/activation	    abd_r/activation	    add_r/activation	hamstrings_r/activation	bifemsh_r/activation	glut_max_r/activation	iliopsoas_r/activation	rect_fem_r/activation	  vasti_r/activation	gastroc_r/activation	 soleus_r/activation	tib_ant_r/activation	 ercspn_l/activation	 intobl_l/activation	 extobl_l/activation	    abd_l/activation	    add_l/activation	hamstrings_l/activation	bifemsh_l/activation	glut_max_l/activation	iliopsoas_l/activation	rect_fem_l/activation	  vasti_l/activation	gastroc_l/activation	 soleus_l/activation	tib_ant_l/activation	
          0.00000000	         -1.51750264	          0.25187539	          8.52079496	          0.00000000	          0.88454590	         -0.01098349	         28.10904720	         -2.83006445	         -9.62483780	        -10.45904412	          3.94979574	          0.23007505	        -11.92675501	         -0.25796601	         -7.29373433	         -6.86542018	         14.13836015	         17.63901661	        -14.04661928	         -4.26127869	         -7.77027727	          0.04559722	          0.23331040	          0.02229639	          0.00999999	          0.26111523	          0.06589603	          0.01510899	          0.01697159	          0.18843695	          0.04166294	          0.05064061	          0.00999999	          0.00999999	          0.33721044	          0.01000001	          0.00999999	          0.00999999	          0.07874070	          0.00999999	          0.02971375	          0.29329623	          0.02025165	          0.01857206	          0.00999999	          0.00999999	          0.26282488	          0.24387092	          0.01304578	
          0.01375156	         -1.62833408	          0.24176768	          8.29244964	          0.01509825	          0.88211790	         -0.01059667	         28.10890887	         -2.66638003	         -9.83064735	        -11.81247436	          3.77721227	          0.22666011	        -12.59927401	         -0.36501296	         -7.95851539	         -7.36466080	         14.04812996	         19.00466500	        -13.53361465	         -3.61646431	         -7.82804838	          0.03709526	          0.22675063	          0.01813905	          0.00999999	          0.31174094	          0.06802751	          0.01229182	          0.01380711	          0.15330139	          0.03389456	          0.04119827	          0.01510914	          0.01857204	          0.33136297	          0.02526602	          0.00999999	          0.00999999	          0.06405888	          0.00999999	          0.02417339	          0.24617837	          0.01647557	          0.01510915	          0.00999999	          0.00999999	          0.25710852	          0.25240133	          0.01061329	
          0.02750312	         -1.72275780	          0.17375068	          8.02305429	          0.03065181	          0.87981421	         -0.01016330	         27.99017821	         -2.49119839	         -9.89471125	        -13.17870823	          3.53583313	          0.22130813	        -13.23332741	         -0.53764781	         -8.66437306	         -8.01144594	         13.87296817	         20.45131891	        -12.97804992	         -2.88025166	         -7.86269764	          0.03017855	          0.21963812	          0.01475688	          0.01461117	          0.25361438	          0.07288631	          0.01000007	          0.03179444	          0.12471713	          0.02757465	          0.04179211	          0.01229192	          0.01510914	          0.35373278	          0.02597959	          0.00999999	          0.00999999	          0.05211459	          0.00999999	          0.03229563	          0.20027647	          0.01340357	          0.01229193	          0.00999999	          0.00999999	          0.23215788	          0.25208908	          0.00999999	
          0.04125469	         -1.80209895	          0.04255667	          7.70289335	          0.04646106	          0.87781416	         -0.00961904	         27.81162438	         -2.26846356	        -10.05539587	        -14.42597576	          3.13041390	          0.20724888	        -13.76845609	         -0.78836416	         -9.42144343	         -8.88725102	         13.58960208	         21.96539886	        -12.40735902	         -2.05438613	         -7.86407515	          0.02455152	          0.17868486	          0.01200534	          0.02237307	          0.21449382	          0.07893647	          0.01000024	          0.02586611	          0.10146264	          0.02243314	          0.11240219	          0.00999999	          0.01229192	          0.38174967	          0.02726365	          0.00999999	          0.00999999	          0.04239742	          0.00999999	          0.04117077	          0.16293334	          0.01127777	          0.01000001	          0.00999999	          0.00999999	          0.18887021	          0.24257290	          0.00999999	
          0.05500625	         -1.86687498	         -0.14095630	          7.33895895	          0.06240388	          0.87630114	         -0.00894890	         27.56252800	         -2.00619259	        -10.35529090	        -15.57258490	          2.78332646	          0.18603356	        -14.15476042	         -1.11797807	        -10.22076686	        -10.06272030	         13.15174170	         23.54100140	        -11.84148597	         -1.15778728	         -7.83163091	          0.02344589	          0.14536765	          0.00999999	          0.04543295	          0.18752418	          0.07894705	          0.01000009	          0.02104317	          0.08254413	          0.01825030	          0.18218748	          0.00999999	          0.00999999	          0.39679260	          0.04222936	          0.00999999	          0.00999999	          0.03449208	          0.00999999	          0.03493365	          0.13255313	          0.01089535	          0.00999999	          0.00999999	          0.00999999	          0.15365386	          0.22513746	          0.00999999	
          0.06875781	         -1.91788380	         -0.36870407	          6.94332417	          0.07835887	          0.87547529	         -0.00813937	         27.20392906	         -1.69812872	        -10.75062417	        -16.57845440	          2.65056224	          0.16326911	        -14.33532736	         -1.53520830	        -11.05064038	        -11.61395288	         12.49343195	         25.18831318	        -11.29659045	         -0.20897484	         -7.76687507	          0.02974199	          0.11826271	          0.00999999	          0.07433958	          0.16412960	          0.07798645	          0.00999999	          0.02584842	          0.06715312	          0.01484739	          0.22198404	          0.00999999	          0.00999999	          0.39755523	          0.07031658	          0.00999999	          0.00999999	          0.02806076	          0.00999999	          0.04939521	          0.10783755	          0.01619752	          0.00999999	          0.00999999	          0.00999999	          0.12500389	          0.18342872	          0.00999999	
          0.08250937	         -1.95594989	         -0.63077986	          6.53028259	          0.09418255	          0.87547373	         -0.00718731	         26.72977325	         -1.33605294	        -11.15390492	        -17.42483903	          2.74616337	          0.14900336	        -14.25025687	         -2.04948717	        -11.91047673	        -13.62340840	         11.57583360	         26.88458493	        -10.78811321	          0.77300003	         -7.67528680	          0.03243985	          0.09621169	          0.00999999	          0.09366078	          0.14728496	          0.07927020	          0.01000006	          0.02102879	          0.05463189	          0.01207898	          0.23681297	          0.00999999	          0.00999999	          0.37935610	          0.08877648	          0.00999999	          0.00999999	          0.02282861	          0.00999999	          0.06927546	          0.08773039	          0.02477682	          0.00999999	          0.00999999	          0.00999999	          0.10169592	          0.14922698	          0.00999999	
          0.09626093	         -1.98139823	         -0.90661883	          6.11318807	          0.10977019	          0.87629287	         -0.00610135	         26.14290649	         -0.92432160	        -11.48004524	        -18.10024727	          3.04412253	          0.16274096	        -13.86250664	         -2.65805907	        -12.79638532	        -16.13614179	         10.35919025	         28.60378200	        -10.32683191	          1.75954151	         -7.56287548	          0.03266954	          0.07827226	          0.00999999	          0.10377447	          0.15558277	          0.08197937	          0.01000000	          0.02780597	          0.04444534	          0.00999999	          0.24862187	          0.00999999	          0.00999999	          0.34493613	          0.08456188	          0.00999999	          0.00999999	          0.01857203	          0.11031205	          0.09657666	          0.07137236	          0.02015698	          0.00999999	          0.00999999	          0.00999999	          0.08273391	          0.12140243	          0.00999999	
          0.11001249	         -1.99486213	         -1.16516002	          5.70152830	          0.12503438	          0.87785603	         -0.00490784	         25.42899302	         -0.48211575	        -11.67252175	        -18.55126613	          3.43653750	          0.24629152	        -13.14967388	         -3.34551068	        -13.69021734	        -19.16983221	          8.81759621	         30.25971278	         -9.92295602	          2.71445696	         -7.43144565	          0.03062416	          0.06367778	          0.00999999	          0.10937295	          0.15808442	          0.08715398	          0.01000000	          0.02313419	          0.03615816	          0.00999999	          0.24217843	          0.00999999	          0.00999999	          0.31270176	          0.07176942	          0.00999999	          0.00999999	          0.01510913	          0.16135607	          0.11020202	          0.05806442	          0.01639855	          0.00999999	          0.00999999	          0.00999999	          0.06730752	          0.09876599	          0.00999999	
          0.12376406	         -1.99641868	         -1.37010892	          5.29834102	          0.13991683	          0.88001605	         -0.00363923	         24.58814397	         -0.05302218	        -11.74324118	        -18.75889057	          3.80843725	          0.40099268	        -12.11608731	         -4.08689718	        -14.57873655	        -22.69508082	          6.95381033	         31.67819621	         -9.58414549	          3.59709820	         -7.27642618	          0.02756266	          0.05180455	          0.01000000	          0.11212257	          0.15849102	          0.09105047	          0.01000000	          0.02241283	          0.02941618	          0.00999999	          0.22904872	          0.00999999	          0.00999999	          0.28249791	          0.06489113	          0.01229192	          0.00999999	          0.01229191	          0.17453406	          0.11073552	          0.04723785	          0.01334091	          0.00999999	          0.00999999	          0.00999999	          0.05475750	          0.08035029	          0.00999999	
